<?xml version="1.0" ?><svg enable-background="new 0 0 400 400" id="Layer_1" version="1.1" viewBox="0 0 400 400" xml:space="preserve" xmlns="http://www.w3.org/2000/svg" xmlns:xlink="http://www.w3.org/1999/xlink"><g><path d="M266.797,76.921h-72.449v115.823c0.029,0.021,0.059,0.037,0.088,0.058c6.269,4.581,7.896,13.215,3.763,19.755   l-3.851,7.203v0.958h72.449V76.921z" fill="none"/><path d="M230.572,234.611c-2.481,0-4.5,2.019-4.5,4.5s2.019,4.5,4.5,4.5s4.5-2.019,4.5-4.5   S233.053,234.611,230.572,234.611z" fill="none"/><path d="M181.645,264.937l0.742,10.392c0.728,10.182-3.403,20.298-11.05,27.06l-11.474,10.146   c-0.951,0.841-2.134,1.254-3.311,1.254c-1.383,0-2.759-0.57-3.747-1.688c-1.83-2.069-1.636-5.229,0.433-7.058l11.474-10.146   c5.328-4.712,8.207-11.761,7.7-18.856l-1.095-15.33c-0.644-9.017-0.555-18.564,4.398-27.306l13.983-26.122   c1.38-2.107,0.868-4.922-1.165-6.408c-2-1.462-4.781-1.132-6.384,0.744l-37.118,51.562c-1.612,2.241-4.737,2.75-6.979,1.137   c-2.241-1.614-2.75-4.738-1.137-6.979l31.227-43.366v-17.87l-39.519,46.901c-3.209,3.809-5.206,8.437-5.773,13.385l-4.817,41.743   c-3.069,15.108,4.368,30.573,18.087,37.608c13.64,6.996,30.426,4.084,40.916-7.065l13.534-18.257   c2.532-3.416,3.927-7.639,3.927-11.89v-23.541h-11.97C182.23,264.986,181.939,264.955,181.645,264.937z" fill="none"/><path d="M278.615,60.94h-96.086c-2.418,0-4.385,1.967-4.385,4.385v126.766c3.364-2.029,7.408-2.639,11.203-1.682   V74.421c0-1.381,1.119-2.5,2.5-2.5h77.449c1.381,0,2.5,1.119,2.5,2.5v148.796c0,1.381-1.119,2.5-2.5,2.5h-77.449   c-0.221,0-0.432-0.038-0.636-0.092l-6.771,12.667c-2.808,4.931-3.471,10.656-3.39,16.419c0.464,0.168,0.957,0.275,1.479,0.275   h96.086c2.418,0,4.385-1.967,4.385-4.384V65.325C283,62.907,281.033,60.94,278.615,60.94z M230.572,248.611   c-5.238,0-9.5-4.262-9.5-9.5s4.262-9.5,9.5-9.5s9.5,4.262,9.5,9.5S235.81,248.611,230.572,248.611z" fill="none"/><path d="M278.615,50.94h-96.086c-7.932,0-14.385,6.453-14.385,14.385v105.334c-0.115,0.113-0.241,0.211-0.347,0.336   l-46.818,55.564c-4.481,5.317-7.269,11.779-8.063,18.687l-4.725,41.11c-0.796,4.02-1.008,8.056-0.7,12.012   c-1.771,12.038,1.277,24.275,8.511,33.874c7.276,9.654,18.021,15.56,30.254,16.629c1.429,0.125,2.85,0.187,4.258,0.187   c5.728,0,11.236-1.026,16.132-3.023c1.278-0.521,1.892-1.981,1.37-3.259c-0.522-1.279-1.98-1.892-3.259-1.371   c-5.365,2.19-11.608,3.051-18.065,2.485c-10.804-0.944-20.284-6.15-26.696-14.657c-2.32-3.079-4.144-6.469-5.469-10.043   c4.138,6.411,9.931,11.805,17.031,15.446c6.407,3.286,13.351,4.876,20.246,4.876c12.143,0,24.13-4.935,32.748-14.237l14.052-18.905   c3.801-5.127,5.894-11.464,5.894-17.845v-23.541h74.116c7.932,0,14.385-6.453,14.385-14.384V65.325   C293,57.393,286.547,50.94,278.615,50.94z M194.499,288.527c0,4.251-1.395,8.474-3.927,11.89l-13.534,18.257   c-10.49,11.149-27.276,14.061-40.916,7.065c-13.719-7.035-21.156-22.5-18.087-37.608l4.817-41.743   c0.567-4.948,2.564-9.576,5.773-13.385l39.519-46.901v17.87l-31.227,43.366c-1.613,2.241-1.104,5.366,1.137,6.979   c2.241,1.613,5.366,1.104,6.979-1.137l37.118-51.562c1.603-1.875,4.384-2.206,6.384-0.744c2.033,1.486,2.545,4.3,1.165,6.408   l-13.983,26.122c-4.953,8.742-5.042,18.29-4.398,27.306l1.095,15.33c0.507,7.095-2.372,14.145-7.7,18.856l-11.474,10.146   c-2.068,1.83-2.263,4.989-0.433,7.058c0.988,1.117,2.364,1.688,3.747,1.688c1.177,0,2.359-0.414,3.311-1.254l11.474-10.146   c7.646-6.762,11.777-16.878,11.05-27.06l-0.742-10.392c0.294,0.018,0.585,0.049,0.884,0.049h11.97V288.527z M194.347,219.759   l3.851-7.203c4.133-6.54,2.506-15.174-3.763-19.755c-0.029-0.021-0.059-0.037-0.088-0.058V76.921h72.449v143.796h-72.449V219.759z    M283,250.602c0,2.417-1.967,4.384-4.385,4.384h-96.086c-0.521,0-1.015-0.107-1.479-0.275c-0.081-5.763,0.582-11.488,3.39-16.419   l6.771-12.667c0.204,0.054,0.415,0.092,0.636,0.092h77.449c1.381,0,2.5-1.119,2.5-2.5V74.421c0-1.381-1.119-2.5-2.5-2.5h-77.449   c-1.381,0-2.5,1.119-2.5,2.5v115.988c-3.795-0.957-7.839-0.347-11.203,1.682V65.325c0-2.418,1.967-4.385,4.385-4.385h96.086   c2.418,0,4.385,1.967,4.385,4.385V250.602z" fill="#333333"/><path d="M230.572,229.611c-5.238,0-9.5,4.262-9.5,9.5s4.262,9.5,9.5,9.5s9.5-4.262,9.5-9.5   S235.81,229.611,230.572,229.611z M230.572,243.611c-2.481,0-4.5-2.019-4.5-4.5s2.019-4.5,4.5-4.5s4.5,2.019,4.5,4.5   S233.053,243.611,230.572,243.611z" fill="#333333"/></g></svg>